<svg xmlns="http://www.w3.org/2000/svg" width="25" height="24" fill="none" viewBox="0 0 25 24"><mask id="0JZkf8-tfja" width="17" height="22" x="4" y="1" maskUnits="userSpaceOnUse" style="mask-type:alpha"><path fill="#D9D9D9" fill-rule="evenodd" d="M12.191 1H4v22h17V9.809a.75.75 0 0 1-.5.191h-7.75a.75.75 0 0 1-.75-.75V1.5c0-.192.072-.367.191-.5M8.5 14a1 1 0 0 1 1-1h6a1 1 0 1 1 0 2h-6a1 1 0 0 1-1-1m1 3a1 1 0 1 0 0 2h6a1 1 0 1 0 0-2z" clip-rule="evenodd"/><path fill="#D9D9D9" d="M21 8.691V1h-7.691a.75.75 0 0 1 .191.5v7h7c.192 0 .367.072.5.191"/></mask><g mask="url(#0JZkf8-tfja)"><path fill="#000" d="M19.75 9.25v11c0 .55-.45 1-1 1H6.25c-.55 0-1-.45-1-1V3.75c0-.55.45-1 1-1h7"/><path stroke="#000" stroke-linecap="round" stroke-linejoin="round" stroke-width="1.5" d="M19.75 9.25v11c0 .55-.45 1-1 1H6.25c-.55 0-1-.45-1-1V3.75c0-.55.45-1 1-1h7z"/></g></svg>